PathFileType	4	(X/Y/Z)	./resultDataOpenSim/trcMotMarkerGrf/sub10/qtm-15-03.trc
DataRate	CameraRate	NumFrames	NumMarkers	Units	OrigDataRate	OrigDataStartFrame	OrigNumFrames
250.000000	250.000000	14	24	m	250.000000	427	487
Frame#	Time	L.Toe.Tip			R.Toe.Tip			L.Ankle.Lat			R.Ankle.Lat			L.Ankle.Med			R.Ankle.Med			L.Heel			R.Heel			L.Knee.Lat			R.Knee.Lat			L.Knee.Med			R.Knee.Med			L.Thigh.Upper			R.Thigh.Upper			L.ASIS			R.ASIS			V.Sacral			L.Acromium			R.Acromium			C7			L.Elbow			R.Elbow			L.Wrist.Lat			R.Wrist.Lat
		X1	Y1	Z1	X2	Y2	Z2	X3	Y3	Z3	X4	Y4	Z4	X5	Y5	Z5	X6	Y6	Z6	X7	Y7	Z7	X8	Y8	Z8	X9	Y9	Z9	X10	Y10	Z10	X11	Y11	Z11	X12	Y12	Z12	X13	Y13	Z13	X14	Y14	Z14	X15	Y15	Z15	X16	Y16	Z16	X17	Y17	Z17	X18	Y18	Z18	X19	Y19	Z19	X20	Y20	Z20	X21	Y21	Z21	X22	Y22	Z22	X23	Y23	Z23	X24	Y24	Z24

427	1.704	1.60831	0.04118335	-0.2783431	0.87964878	0.038627454	-0.09046105	1.4714827	0.079454877	-0.32499065	0.78918399	0.14910401	-0.061003507	1.4737906	0.099276148	-0.24221296	0.83317035	0.15021272	-0.13828342	1.4064474	0.048354097	-0.28940007	0.74430699	0.15925	-0.11568071	1.433354	0.4646727	-0.33240762	1.0510934	0.45220932	-0.031417272	1.4369326	0.44038688	-0.2130009	1.0956216	0.43234727	-0.15001878	1.3247127	0.84023181	-0.3699498	1.1786727	0.83775815	-0.006588781	1.3475632	0.93522862	-0.27616471	1.2821843	0.9258775	-0.044377891	1.1144102	0.94653189	-0.22876992	1.2431672	1.4108944	-0.33338403	1.2391738	1.4054924	-0.019849241	1.1633498	1.430094	-0.18252838	1.0497087	1.1452234	-0.41929907	1.2504336	1.0458778	0.053903086	1.0629392	0.9339534	-0.54577483	1.4761382	0.99525627	-0.04910714
428	1.708	1.6083569	0.041103062	-0.27836329	0.88087672	0.038572816	-0.090478734	1.4716263	0.079273937	-0.3248826	0.79335021	0.15140486	-0.06037078	1.4740497	0.099166353	-0.24209292	0.83758152	0.15168906	-0.13748355	1.4063843	0.048086202	-0.2892578	0.74878576	0.16250812	-0.11513052	1.4389549	0.46538141	-0.33202486	1.0569969	0.45248781	-0.031632877	1.4401964	0.44126379	-0.21287502	1.1026336	0.43143885	-0.14983697	1.3295058	0.84127142	-0.37127431	1.1855002	0.83699032	-0.0070877747	1.3533387	0.93633386	-0.27768017	1.2890364	0.92535138	-0.046175387	1.1195268	0.94734036	-0.2284575	1.2478849	1.4109934	-0.33466159	1.2448893	1.4057075	-0.021063316	1.1684601	1.4302876	-0.18361855	1.0555076	1.1444164	-0.42044276	1.2558861	1.045882	0.051962442	1.0692492	0.93376394	-0.54796119	1.4817874	0.9953553	-0.05061989
429	1.712	1.6084512	0.041026116	-0.27843822	0.88223218	0.038532161	-0.09040106	1.4718416	0.079036675	-0.32503086	0.79767339	0.15377278	-0.059744929	1.4741815	0.098956965	-0.24222865	0.84207693	0.15322223	-0.13672667	1.4063697	0.047757437	-0.2895425	0.75338355	0.16583577	-0.11457629	1.4445415	0.46597306	-0.33174576	1.0631763	0.45264675	-0.031857578	1.44394	0.44206389	-0.21287006	1.1098857	0.43043335	-0.14966904	1.3342028	0.8422168	-0.37256007	1.1924834	0.83624565	-0.0073680525	1.3590465	0.93746034	-0.27918384	1.2958015	0.9248338	-0.047990437	1.1247981	0.94803139	-0.22814939	1.2526087	1.4110688	-0.335914	1.2506004	1.4058949	-0.022255329	1.1735533	1.4304774	-0.1846751	1.0613621	1.1435628	-0.4216063	1.2612597	1.0458713	0.050051843	1.0756498	0.93353707	-0.55010472	1.4873584	0.99532203	-0.052052226
430	1.716	1.6085444	0.040954494	-0.27856845	0.88367497	0.038566714	-0.090276119	1.472082	0.07871789	-0.32544925	0.80214543	0.1562195	-0.059119514	1.4741983	0.098664418	-0.2426273	0.84666141	0.154833	-0.1359971	1.4063975	0.047393525	-0.29033976	0.75809871	0.16926389	-0.11400782	1.4500151	0.46642604	-0.33163737	1.0697203	0.452682	-0.032096597	1.4479278	0.44275305	-0.21302405	1.1173667	0.42934247	-0.14951787	1.3388289	0.84306468	-0.37380031	1.199524	0.83550891	-0.0074859964	1.3646879	0.93858723	-0.28063697	1.302469	0.9243335	-0.049823778	1.1300018	0.94862536	-0.22772471	1.2573431	1.411131	-0.33713929	1.256295	1.4060434	-0.023424731	1.1786308	1.4306593	-0.1856917	1.0672917	1.1426556	-0.42282435	1.2665492	1.0458505	0.048177243	1.0821562	0.93327534	-0.55220665	1.4928474	0.9951601	-0.053402692
431	1.72	1.6085811	0.040891564	-0.27875254	0.88515536	0.038764185	-0.090166789	1.4723016	0.078307261	-0.32613669	0.80676786	0.15874649	-0.058494803	1.4741766	0.098340678	-0.24327545	0.85134627	0.1565268	-0.13528007	1.4064614	0.047001948	-0.29166227	0.76293412	0.17280863	-0.11342021	1.4553043	0.46673209	-0.33175113	1.0766283	0.45260926	-0.032352885	1.4520211	0.44330928	-0.21336147	1.125067	0.42817377	-0.14937902	1.3434118	0.84381469	-0.37499208	1.2064167	0.83473845	-0.0075873595	1.3702659	0.9396954	-0.28200807	1.3090262	0.92385415	-0.051686678	1.1352739	0.94902192	-0.22719742	1.2620781	1.4111834	-0.33833697	1.2619816	1.4061484	-0.024583337	1.1836821	1.430824	-0.18666397	1.0733205	1.1416949	-0.42411114	1.2717541	1.0458233	0.046338369	1.08878	0.93297882	-0.55427027	1.498252	0.99487223	-0.05467217
432	1.724	1.6085388	0.040838348	-0.27898399	0.886663	0.039210854	-0.09008718	1.4724779	0.07780697	-0.32707236	0.81153578	0.16136176	-0.057883581	1.4741592	0.098009736	-0.24414106	0.85612775	0.1583021	-0.13459185	1.4065366	0.04652512	-0.29335895	0.7679141	0.1764758	-0.11283293	1.4603496	0.46688981	-0.33209744	1.0838406	0.45244921	-0.032625722	1.4561697	0.44371461	-0.21388571	1.132972	0.42694069	-0.14924568	1.3479698	0.84446623	-0.3761303	1.2130498	0.83392366	-0.0077786135	1.3757835	0.94076846	-0.28331082	1.3154621	0.92340024	-0.05354988	1.1406772	0.94918971	-0.22659124	1.2668057	1.4112282	-0.33950449	1.2676668	1.4062154	-0.025743441	1.1886979	1.4309709	-0.18759238	1.0794308	1.1407014	-0.42543704	1.2768786	1.0457914	0.044536707	1.0955229	0.93264689	-0.55629327	1.503571	0.99446243	-0.055867513
433	1.728	1.6084204	0.040794995	-0.27925606	0.88824256	0.03995446	-0.08998738	1.4726071	0.077213071	-0.32820012	0.81643796	0.16406925	-0.057303074	1.4741428	0.097668864	-0.24519021	0.86100097	0.16015538	-0.13395681	1.4065747	0.045865808	-0.29517107	0.77307227	0.18026024	-0.11227899	1.4651024	0.4668993	-0.33266404	1.0912901	0.45220907	-0.032897021	1.4603643	0.44394514	-0.2145844	1.1410581	0.42566314	-0.14911988	1.3525087	0.84501653	-0.37720537	1.2194618	0.83309375	-0.0080553869	1.3812437	0.94179181	-0.28459499	1.3217813	0.92297789	-0.055344358	1.1461138	0.94923883	-0.22592504	1.2715351	1.4112702	-0.34063702	1.2733378	1.4062519	-0.02690495	1.1936793	1.4311034	-0.1884842	1.0855599	1.1397055	-0.42674267	1.2819343	1.0457544	0.042780018	1.1023821	0.93228171	-0.55827459	1.5088017	0.99393679	-0.056995128
434	1.732	1.6082319	0.040765082	-0.27955694	0.88994564	0.040972569	-0.089804653	1.4726873	0.076498669	-0.32943364	0.8214645	0.16685978	-0.05676789	1.4740913	0.097303746	-0.24638913	0.86597684	0.16207615	-0.13337268	1.4065346	0.044967605	-0.29691643	0.77842652	0.18414207	-0.11179243	1.4695316	0.46675876	-0.3334366	1.0989359	0.45188053	-0.033140159	1.4645926	0.44397495	-0.21543952	1.1492974	0.42435842	-0.14901293	1.3570291	0.84546478	-0.3782058	1.225734	0.8322862	-0.0083628209	1.3866493	0.94274843	-0.2858921	1.3279954	0.92259414	-0.057017633	1.1514763	0.94928885	-0.22521917	1.2762812	1.4113133	-0.341731	1.2789707	1.4062598	-0.028057776	1.1986324	1.4312194	-0.18934978	1.0916647	1.1387202	-0.42798915	1.2869317	1.0457118	0.041076227	1.1093494	0.9318886	-0.56021611	1.5139398	0.99330218	-0.058055767
435	1.736	1.6079777	0.040752595	-0.27986559	0.89178728	0.042180491	-0.089522402	1.4727035	0.075625309	-0.3306956	0.82660886	0.16971737	-0.056293384	1.4739451	0.096887184	-0.24768575	0.87107921	0.16403883	-0.13281537	1.4064006	0.043851076	-0.29854335	0.7839771	0.18808399	-0.11140593	1.4736182	0.46646175	-0.3343958	1.1067618	0.45145632	-0.033345098	1.4688192	0.4437881	-0.21643373	1.157665	0.42303918	-0.14893161	1.3615394	0.84581905	-0.37912902	1.231911	0.83153021	-0.0086671717	1.3920024	0.94361926	-0.28719104	1.3341074	0.92225769	-0.058557697	1.1567172	0.94936161	-0.22448114	1.281043	1.4113582	-0.34278802	1.2845478	1.4062379	-0.029194743	1.2035625	1.4313168	-0.19019224	1.0977519	1.1377385	-0.4291827	1.2918693	1.0456653	0.039427938	1.1164174	0.93147258	-0.5621158	1.5189831	0.99256386	-0.059045984
436	1.74	1.6076699	0.040754058	-0.28015924	0.89375524	0.043480818	-0.089168473	1.4726261	0.07457705	-0.33193385	0.83187031	0.17261877	-0.055895759	1.4736586	0.096393383	-0.24900101	0.87633359	0.16600636	-0.13226744	1.406175	0.042595526	-0.30003251	0.78972179	0.1920394	-0.11114339	1.4773453	0.4659961	-0.33550645	1.1147534	0.45094387	-0.033517219	1.4729862	0.44338027	-0.21755355	1.1661399	0.42171737	-0.14887046	1.3660637	0.84609304	-0.37998985	1.2379956	0.83083833	-0.0089724368	1.3973066	0.94438999	-0.28846101	1.3401103	0.92197825	-0.059970467	1.1618101	0.94941686	-0.22370574	1.2858054	1.4114045	-0.34381488	1.2900649	1.4061892	-0.030319095	1.2084749	1.4313999	-0.19100729	1.103847	1.136753	-0.43035006	1.2967355	1.0456199	0.037835353	1.1235928	0.93103683	-0.56396686	1.5239317	0.99172652	-0.059963196
437	1.744	1.6073324	0.040758452	-0.28042189	0.89583509	0.044810531	-0.088781682	1.4724325	0.073391997	-0.33308997	0.83725879	0.17553806	-0.055579979	1.4732483	0.095824423	-0.25023916	0.88175985	0.1679514	-0.13174072	1.4058778	0.041314789	-0.30133768	0.79567807	0.19598339	-0.1110098	1.4806969	0.4653489	-0.33672236	1.1228896	0.45036167	-0.033660196	1.4770253	0.44275146	-0.21878642	1.1747019	0.42040456	-0.14882356	1.370634	0.84629575	-0.38081401	1.2439816	0.83020479	-0.0093072785	1.402567	0.94505173	-0.28967917	1.3459962	0.92176372	-0.061261606	1.1667611	0.94941833	-0.22291201	1.2905592	1.4114522	-0.34481858	1.2955202	1.4061234	-0.031438108	1.2133696	1.4314715	-0.19179721	1.1099664	1.1357645	-0.43151022	1.3015214	1.045581	0.03630005	1.1308943	0.93058244	-0.56576488	1.5287847	0.99079663	-0.060808608
438	1.748	1.6069983	0.040754008	-0.28064207	0.89801967	0.046155088	-0.088393588	1.4721413	0.072165526	-0.33408157	0.84279097	0.17846055	-0.055336495	1.4727956	0.095210366	-0.25129949	0.88736853	0.16987148	-0.13126883	1.4055505	0.040128185	-0.30240093	0.80188433	0.19992594	-0.11098921	1.4836822	0.46451957	-0.33800656	1.1311473	0.44972831	-0.033773546	1.4808748	0.44190192	-0.22011082	1.1833309	0.4191095	-0.14879538	1.375273	0.84642881	-0.38162604	1.2498817	0.82961833	-0.0097081909	1.4077862	0.9455988	-0.29083907	1.3517641	0.9216186	-0.062436052	1.1716625	0.94935122	-0.22217497	1.2953074	1.4115	-0.34580153	1.3009026	1.406052	-0.032554168	1.218236	1.431525	-0.19257748	1.1161128	1.1347763	-0.43267044	1.3062229	1.0455498	0.03482334	1.1383322	0.9301088	-0.56751003	1.5335388	0.9897808	-0.061585023
439	1.752	1.6067079	0.040733279	-0.28080907	0.90031089	0.047533477	-0.088020681	1.4718275	0.071016599	-0.3348338	0.84847822	0.18138214	-0.055153156	1.4724074	0.094587452	-0.25208957	0.89316395	0.1717737	-0.13086894	1.4052429	0.039127644	-0.30317025	0.80836896	0.20387748	-0.11106011	1.4863537	0.46352876	-0.33934185	1.1395078	0.44905583	-0.033856748	1.4844821	0.44083501	-0.22148998	1.1920078	0.41783441	-0.14879333	1.3799917	0.84649139	-0.38244517	1.2557112	0.82907226	-0.01020383	1.4129575	0.94603333	-0.29194422	1.3574184	0.92154324	-0.063499439	1.176656	0.94921003	-0.22159691	1.3000553	1.4115458	-0.34676409	1.3062005	1.4059777	-0.033664884	1.2230564	1.4315527	-0.19336607	1.122277	1.1337911	-0.43383275	1.3108303	1.0455264	0.033405012	1.1459012	0.92961569	-0.56920281	1.5381898	0.98868415	-0.062292744
440	1.756	1.6065012	0.040695642	-0.2809183	0.90272219	0.048969566	-0.087663867	1.4715911	0.070043681	-0.33531163	0.854321	0.18429782	-0.055024964	1.472179	0.093988821	-0.25254806	0.89914912	0.1736533	-0.13052838	1.4049925	0.038363899	-0.30360846	0.81513104	0.20781901	-0.11121324	1.4887499	0.46240604	-0.34071775	1.1479603	0.44834885	-0.033912029	1.4877876	0.43956471	-0.22287784	1.2007165	0.41657343	-0.1488143	1.3847998	0.84648542	-0.38328901	1.2614678	0.82856175	-0.010807186	1.4180633	0.94636599	-0.29300252	1.3629618	0.92153419	-0.064454478	1.1818135	0.94899353	-0.22123792	1.304805	1.411588	-0.34770816	1.3114143	1.4058968	-0.034765324	1.227818	1.4315574	-0.19416926	1.128446	1.1328114	-0.43499672	1.3153279	1.0455121	0.032046116	1.1535947	0.92910408	-0.5708435	1.5427329	0.98751261	-0.062927708
